<svg width="32" height="32" viewBox="0 0 32 32" fill="none" xmlns="http://www.w3.org/2000/svg">
<path d="M16 32C24.8366 32 32 24.8366 32 16C32 7.16344 24.8366 0 16 0C7.16344 0 0 7.16344 0 16C0 24.8366 7.16344 32 16 32Z" fill="black"/>
<path d="M5.75851 20V11.2727H7.60368V14.8736H11.3494V11.2727H13.1903V20H11.3494V16.3949H7.60368V20H5.75851ZM16.6761 20L14.179 11.2727H16.1946L17.6392 17.3366H17.7116L19.3054 11.2727H21.0312L22.6207 17.3494H22.6974L24.142 11.2727H26.1577L23.6605 20H21.8622L20.2003 14.294H20.1321L18.4744 20H16.6761Z" fill="white"/>
<path d="M16 29.5C23.4558 29.5 29.5 23.4558 29.5 16C29.5 8.54416 23.4558 2.5 16 2.5C8.54416 2.5 2.5 8.54416 2.5 16C2.5 23.4558 8.54416 29.5 16 29.5Z" stroke="white"/>
</svg>
