<svg width="84" height="32" viewBox="0 0 84 32" fill="none" xmlns="http://www.w3.org/2000/svg">
<path d="M61.4204 27.7273L59 19H60.3849L62.0852 25.7585H62.1662L63.9346 19H65.3068L67.0752 25.7628H67.1562L68.8522 19H70.2414L67.8167 27.7273H66.4914L64.6548 21.1904H64.5866L62.75 27.7273H61.4204ZM73.5163 27.8594C72.8714 27.8594 72.316 27.7216 71.8501 27.4461C71.387 27.1676 71.0291 26.777 70.7762 26.2742C70.5262 25.7685 70.4012 25.1762 70.4012 24.4972C70.4012 23.8267 70.5262 23.2358 70.7762 22.7245C71.0291 22.2131 71.3814 21.8139 71.8331 21.527C72.2876 21.2401 72.8189 21.0966 73.4268 21.0966C73.7961 21.0966 74.1541 21.1577 74.5007 21.2799C74.8473 21.402 75.1583 21.5938 75.4339 21.8551C75.7095 22.1165 75.9268 22.456 76.0859 22.8736C76.245 23.2884 76.3245 23.7926 76.3245 24.3864V24.8381H71.1214V23.8835H75.076C75.076 23.5483 75.0078 23.2514 74.8714 22.9929C74.735 22.7316 74.5433 22.5256 74.2961 22.375C74.0518 22.2245 73.7649 22.1492 73.4353 22.1492C73.0774 22.1492 72.7649 22.2372 72.4978 22.4134C72.2336 22.5867 72.0291 22.8139 71.8842 23.0952C71.7421 23.3736 71.6711 23.6762 71.6711 24.0029V24.7486C71.6711 25.1861 71.7478 25.5583 71.9012 25.8651C72.0575 26.1719 72.2748 26.4063 72.5532 26.5682C72.8316 26.7273 73.1569 26.8068 73.5291 26.8068C73.7706 26.8068 73.9907 26.7728 74.1896 26.7046C74.3885 26.6335 74.5603 26.5284 74.7052 26.3892C74.8501 26.25 74.9609 26.0782 75.0376 25.8736L76.2436 26.0909C76.147 26.446 75.9737 26.7571 75.7237 27.0242C75.4765 27.2884 75.1654 27.4943 74.7904 27.6421C74.4183 27.787 73.9936 27.8594 73.5163 27.8594ZM77.8405 27.7273V19H79.1147V22.2429H79.1914C79.2652 22.1066 79.3718 21.9489 79.511 21.7699C79.6502 21.5909 79.8434 21.4347 80.0905 21.3012C80.3377 21.1648 80.6644 21.0966 81.0706 21.0966C81.599 21.0966 82.0706 21.2301 82.4854 21.4972C82.9002 21.7642 83.2255 22.1492 83.4613 22.652C83.6999 23.1549 83.8192 23.76 83.8192 24.4674C83.8192 25.1747 83.7013 25.7813 83.4655 26.287C83.2297 26.7898 82.9059 27.1776 82.4939 27.4503C82.082 27.7202 81.6118 27.8551 81.0834 27.8551C80.6857 27.8551 80.3604 27.7884 80.1076 27.6549C79.8576 27.5213 79.6615 27.3651 79.5195 27.1861C79.3774 27.0071 79.2681 26.848 79.1914 26.7088H79.0848V27.7273H77.8405ZM79.0891 24.4546C79.0891 24.9148 79.1559 25.3182 79.2894 25.6648C79.4229 26.0114 79.6161 26.2827 79.8689 26.4787C80.1218 26.6719 80.4314 26.7685 80.7979 26.7685C81.1786 26.7685 81.4968 26.6676 81.7524 26.4659C82.0081 26.2614 82.2013 25.9844 82.332 25.635C82.4655 25.2855 82.5323 24.8921 82.5323 24.4546C82.5323 24.0228 82.4669 23.635 82.3363 23.2912C82.2084 22.9475 82.0152 22.6762 81.7567 22.4773C81.501 22.2784 81.1814 22.179 80.7979 22.179C80.4286 22.179 80.1161 22.2742 79.8604 22.4645C79.6076 22.6549 79.4158 22.9205 79.2851 23.2614C79.1544 23.6023 79.0891 24 79.0891 24.4546Z" fill="#FF4500"/>
<path d="M16 32C24.8366 32 32 24.8366 32 16C32 7.16344 24.8366 0 16 0C7.16344 0 0 7.16344 0 16C0 24.8366 7.16344 32 16 32Z" fill="black"/>
<path d="M5.75851 20V11.2727H7.60368V14.8736H11.3494V11.2727H13.1903V20H11.3494V16.3949H7.60368V20H5.75851ZM16.6761 20L14.179 11.2727H16.1946L17.6392 17.3366H17.7116L19.3054 11.2727H21.0312L22.6207 17.3494H22.6974L24.142 11.2727H26.1577L23.6605 20H21.8622L20.2003 14.294H20.1321L18.4744 20H16.6761Z" fill="white"/>
<path d="M16 29.5C23.4558 29.5 29.5 23.4558 29.5 16C29.5 8.54416 23.4558 2.5 16 2.5C8.54416 2.5 2.5 8.54416 2.5 16C2.5 23.4558 8.54416 29.5 16 29.5Z" stroke="white"/>
<path d="M42.07 5.37H44.65V15H42.07V11.19H40.18V15H37.6V5.37H40.18V9.315H42.07V5.37ZM50.8271 7.515H53.3321V15H50.7821V14.19C50.5921 14.73 50.1521 15 49.4621 15H49.1921C47.8621 15 47.1971 14.38 47.1971 13.14V9.375C47.1971 8.135 47.8621 7.515 49.1921 7.515H49.4621C50.2321 7.515 50.6871 7.835 50.8271 8.475V7.515ZM50.1221 13.125H50.3771C50.6471 13.125 50.7821 12.975 50.7821 12.675V9.84C50.7821 9.54 50.6471 9.39 50.3771 9.39H50.1221C49.8721 9.39 49.7471 9.5 49.7471 9.72V12.795C49.7471 13.015 49.8721 13.125 50.1221 13.125ZM63.4798 7.515H63.7498C65.0798 7.515 65.7448 8.135 65.7448 9.375V15H63.1948V9.72C63.1948 9.5 63.0698 9.39 62.8198 9.39H62.5648C62.2948 9.39 62.1598 9.54 62.1598 9.84V15H59.6098V9.72C59.6098 9.5 59.4848 9.39 59.2348 9.39H58.9798C58.7098 9.39 58.5748 9.54 58.5748 9.84V15H56.0248V7.515H58.5298V8.475C58.6698 7.835 59.1248 7.515 59.8948 7.515H60.1648C61.0948 7.515 61.7048 7.83 61.9948 8.46C62.0748 8.17 62.2498 7.94 62.5198 7.77C62.7898 7.6 63.1098 7.515 63.4798 7.515ZM71.8446 7.515H74.3496V15H71.7996V14.19C71.6096 14.73 71.1696 15 70.4796 15H70.2096C68.8796 15 68.2146 14.38 68.2146 13.14V9.375C68.2146 8.135 68.8796 7.515 70.2096 7.515H70.4796C71.2496 7.515 71.7046 7.835 71.8446 8.475V7.515ZM71.1396 13.125H71.3946C71.6646 13.125 71.7996 12.975 71.7996 12.675V9.84C71.7996 9.54 71.6646 9.39 71.3946 9.39H71.1396C70.8896 9.39 70.7646 9.5 70.7646 9.72V12.795C70.7646 13.015 70.8896 13.125 71.1396 13.125Z" fill="white"/>
</svg>
